0
SECTION
2
HEADER
9
$INSUNITS
70
4
9
$ACADVER
1
AC1014
9
$HANDSEED
5
FFFF
0
ENDSEC
0
SECTION
2
TABLES
0
TABLE
2
VPORT
5
8
100
AcDbSymbolTable
0
ENDTAB
0
TABLE
2
LTYPE
5
5
100
AcDbSymbolTable
0
LTYPE
5
14
100
AcDbSymbolTableRecord
100
AcDbLinetypeTableRecord
2
BYBLOCK
70
0
0
LTYPE
5
15
100
AcDbSymbolTableRecord
100
AcDbLinetypeTableRecord
2
BYLAYER
70
0
0
LTYPE
5
16
100
AcDbSymbolTableRecord
100
AcDbLinetypeTableRecord
2
DASHED
70
0
3
Dashed __ __ __ __ __ __ __ __ __ __ __ __ __ _
72
65
73
2
40
0.75
49
0.5
74
0
49
-0.25
74
0
0
ENDTAB
0
TABLE
2
LAYER
5
2
100
AcDbSymbolTable
70
3
0
LAYER
5
50
100
AcDbSymbolTableRecord
100
AcDbLayerTableRecord
2
1
70
0
62
7
6
DASHED
0
LAYER
5
51
100
AcDbSymbolTableRecord
100
AcDbLayerTableRecord
2
0
70
0
62
7
6
CONTINUOUS
0
ENDTAB
0
TABLE
2
STYLE
5
3
100
AcDbSymbolTable
70
1
0
STYLE
5
11
100
AcDbSymbolTableRecord
100
AcDbTextStyleTableRecord
2
STANDARD
70
0
0
ENDTAB
0
TABLE
2
VIEW
5
6
100
AcDbSymbolTable
70
0
0
ENDTAB
0
TABLE
2
UCS
5
7
100
AcDbSymbolTable
70
0
0
ENDTAB
0
TABLE
2
APPID
5
9
100
AcDbSymbolTable
70
2
0
APPID
5
12
100
AcDbSymbolTableRecord
100
AcDbRegAppTableRecord
2
ACAD
70
0
0
ENDTAB
0
TABLE
2
DIMSTYLE
5
A
100
AcDbSymbolTable
70
1
0
ENDTAB
0
TABLE
2
BLOCK_RECORD
5
1
100
AcDbSymbolTable
70
1
0
BLOCK_RECORD
5
1F
100
AcDbSymbolTableRecord
100
AcDbBlockTableRecord
2
*MODEL_SPACE
0
BLOCK_RECORD
5
1B
100
AcDbSymbolTableRecord
100
AcDbBlockTableRecord
2
*PAPER_SPACE
0
ENDTAB
0
ENDSEC
0
SECTION
2
BLOCKS
0
BLOCK
5
20
100
AcDbEntity
100
AcDbBlockBegin
2
*MODEL_SPACE
0
ENDBLK
5
21
100
AcDbEntity
100
AcDbBlockEnd
0
BLOCK
5
1C
100
AcDbEntity
100
AcDbBlockBegin
2
*PAPER_SPACE
0
ENDBLK
5
1D
100
AcDbEntity
100
AcDbBlockEnd
0
ENDSEC
0
SECTION
2
ENTITIES
0
LWPOLYLINE
5
100
100
AcDbEntity
8
0
100
AcDbPolyline
90
32
70
1
43
0.0
10
-60.400115324044734
20
-351.000933820961
10
-60.400115324029208
20
-138.99906617906089
42
0.41421436801327011
10
-62.400120825282798
20
-136.99906617906839
10
-63.50079230638422
20
-136.99906920660476
42
-0.41421356237309492
10
-85.000851444778647
20
-115.49912834516198
10
-85.000859969338904
20
-112.39999449874936
42
0.41421275673340757
10
-87.000859969331259
20
-110.40000000000275
10
-133.00054204742227
20
-110.39999999999928
42
0.41421356237309509
10
-135.00054204742233
20
-112.39999999999922
10
-135.00054204742273
20
-125.40000000000373
42
-0.41421356237310802
10
-137.00054204742284
20
-127.40000000000366
10
-253.00054204742298
20
-127.39999999999517
42
-0.41421356237308465
10
-255.00054204742287
20
-125.39999999999507
10
-255.00054204742244
20
-112.3999999999949
42
0.41421356237309509
10
-257.00054204742236
20
-110.39999999999483
10
-303.00026538431831
20
-110.39999999999139
42
0.41421356237313928
10
-305.00026538431837
20
-112.39999999999164
10
-305.00026538431808
20
-115.49956844464117
42
-0.41421356237309531
10
-326.50026538431808
20
-136.9995684446412
10
-327.60000000001816
20
-136.9995684446412
42
0.41421356237307161
10
-329.60000000001821
20
-138.99956844464103
10
-329.60000000004442
20
-351.000431555349
42
0.41421356237308465
10
-327.6000000000447
20
-353.00043155534917
10
-326.50026538433167
20
-353.00043155534922
42
-0.41421356237309509
10
-305.00026538433349
20
-374.50043155535104
10
-305.00026538433411
20
-377.6000000000007
42
0.4142135623731471
10
-303.00026538433417
20
-379.60000000000116
10
-87.000859969347161
20
-379.60000000001685
42
0.4142127567334154
10
-85.000859969354622
20
-377.60000550127029
10
-85.000851444794165
20
-374.50087165485786
42
-0.41421356237309492
10
-63.50079230639782
20
-353.00093079341679
10
-62.400120825298487
20
-353.00093382095332
42
0.41421436801327527
0
ENDSEC
0
SECTION
2
OBJECTS
0
DICTIONARY
5
C
100
AcDbDictionary
3
ACAD_GROUP
350
D
3
ACAD_MLINESTYLE
350
17
0
DICTIONARY
5
D
100
AcDbDictionary
0
DICTIONARY
5
1A
330
C
100
AcDbDictionary
0
DICTIONARY
5
17
100
AcDbDictionary
0
ENDSEC
0
EOF
